<svg xmlns="http://www.w3.org/2000/svg" version="1.0" width="1024.000000pt" height="364.000000pt" viewBox="0 0 1024.000000 364.000000" preserveAspectRatio="xMidYMid meet">
<metadata>
Created by potrace 1.15, written by Peter Selinger 2001-2017
</metadata>
<g transform="translate(0.000000,364.000000) scale(0.100000,-0.100000)" fill="#de1a42" stroke="none">
<path d="M1500 3625 c-114 -21 -239 -60 -388 -121 -488 -200 -856 -599 -1032 -1119 -68 -201 -75 -254 -75 -565 0 -265 2 -292 24 -384 147 -615 543 -1084 1108 -1310 78 -32 195 -71 260 -88 115 -30 125 -31 383 -35 298 -5 367 4 580 72 95 31 273 103 260 105 -3 1 -93 3 -200 5 -221 4 -329 21 -499 80 -290 101 -541 265 -728 475 -186 207 -312 437 -386 700 -93 329 -79 687 37 1005 60 163 82 209 155 330 199 328 499 575 861 710 113 42 273 83 353 92 31 3 57 9 57 13 0 4 -51 17 -112 29 -96 18 -148 21 -348 20 -151 0 -262 -6 -310 -14z"/>
<path d="M2390 3544 c-124 -19 -324 -78 -425 -124 -290 -134 -539 -344 -709 -600 -367 -552 -370 -1297 -7 -1845 156 -237 360 -422 622 -568 85 -47 321 -131 446 -158 154 -33 420 -37 588 -10 144 24 485 132 485 154 0 2 -73 3 -162 3 -246 1 -396 32 -627 130 -399 170 -723 526 -851 938 -114 364 -114 621 -1 972 99 309 280 562 546 766 89 69 275 170 394 215 75 28 275 73 326 73 23 0 35 5 35 13 0 43 -464 72 -660 41z" fill="#ffffff"/>
<path d="M8701 2777 c-5 -13 -15 -50 -23 -82 -12 -51 -20 -64 -77 -116 -60 -55 -63 -61 -53 -84 15 -32 24 -31 121 4 l79 29 82 -29 c99 -35 107 -36 122 -4 11 24 8 29 -53 85 -35 32 -71 59 -79 60 -16 0 51 48 113 81 38 20 47 45 25 67 -8 8 -52 12 -130 12 -115 0 -119 -1 -127 -23z" fill="#ffffff"/>
<path d="M2570 2458 c-111 -11 -238 -65 -318 -133 -80 -70 -149 -187 -181 -310 -16 -58 -13 -182 4 -250 64 -251 265 -395 553 -396 153 -1 263 37 370 128 51 44 52 46 52 99 0 49 -2 54 -25 60 -21 5 -36 -5 -96 -60 -85 -78 -149 -106 -246 -106 -84 0 -134 15 -181 56 -79 67 -129 242 -119 414 12 199 88 326 221 370 61 20 165 8 221 -24 58 -34 129 -129 146 -195 9 -38 17 -50 35 -54 52 -10 54 -1 54 204 l0 189 -24 12 c-34 15 -52 5 -59 -31 -8 -39 -25 -40 -132 -5 -96 31 -187 42 -275 32z"/>
<path d="M5964 2459 c-75 -9 -182 -44 -243 -81 -84 -50 -199 -186 -236 -278 -22 -57 -32 -242 -16 -324 16 -87 44 -137 127 -225 58 -62 89 -85 150 -115 110 -53 172 -67 301 -67 157 0 249 14 391 63 l62 22 0 145 c0 80 4 152 9 160 5 8 29 17 53 20 38 5 43 9 46 34 7 56 1 57 -260 57 -146 0 -247 -4 -259 -10 -21 -12 -25 -50 -7 -68 7 -7 28 -12 48 -12 19 0 40 -4 47 -8 8 -5 13 -52 15 -145 l3 -137 -35 -10 c-48 -14 -135 -12 -184 2 -64 20 -129 90 -155 168 -48 150 -51 323 -7 483 46 168 132 236 286 225 117 -9 214 -80 275 -201 19 -38 35 -76 35 -83 0 -8 3 -14 8 -15 4 0 15 -2 24 -4 9 -2 26 4 37 12 20 13 21 23 21 193 0 173 -1 179 -22 194 -33 24 -46 20 -69 -19 -12 -19 -29 -35 -38 -35 -10 0 -50 11 -90 25 -67 22 -104 29 -211 39 -19 2 -67 -1 -106 -5z"/>
<path d="M7615 2460 c-216 -24 -415 -181 -485 -382 -31 -88 -37 -223 -15 -308 38 -148 137 -275 258 -333 41 -20 103 -43 137 -52 76 -20 234 -22 305 -4 75 18 185 76 233 122 39 38 42 45 42 93 0 50 -9 64 -40 64 -4 0 -34 -25 -66 -56 -85 -81 -140 -106 -242 -112 -103 -6 -155 12 -209 71 -54 59 -80 117 -99 227 -54 311 75 550 296 550 82 0 150 -30 203 -90 39 -43 87 -131 87 -161 0 -30 33 -42 73 -24 15 6 17 26 17 194 0 187 0 188 -24 200 -33 18 -62 6 -70 -29 -7 -38 -27 -39 -125 -5 -41 13 -97 27 -125 30 -28 4 -60 7 -71 9 -11 2 -47 0 -80 -4z" fill="#ffffff"/>
<path d="M8727 2458 c-9 -7 -32 -51 -52 -98 -51 -119 -157 -353 -165 -365 -4 -5 -17 -35 -28 -65 -45 -121 -188 -413 -213 -436 -10 -9 -33 -19 -51 -23 -27 -6 -34 -12 -36 -36 -6 -49 14 -55 191 -55 90 0 167 4 178 10 13 8 19 21 19 45 0 34 -1 35 -37 35 -95 0 -106 21 -68 126 l27 74 157 0 157 0 37 -91 c21 -50 35 -95 32 -100 -4 -5 -25 -9 -49 -9 -63 0 -88 -37 -48 -73 16 -15 49 -17 251 -17 141 0 240 4 252 10 13 8 19 21 19 45 0 32 -2 35 -30 35 -20 0 -39 9 -53 24 -20 22 -217 442 -217 463 0 6 -6 23 -14 39 -45 91 -113 243 -152 339 -40 97 -63 135 -84 135 -3 0 -14 -6 -23 -12z m-22 -558 c25 -56 45 -104 45 -106 0 -2 -45 -4 -100 -4 -55 0 -100 2 -100 4 0 11 102 218 105 214 3 -2 25 -51 50 -108z" fill="#ffffff"/>
<path d="M3186 2437 c-12 -9 -17 -23 -14 -42 3 -28 6 -30 50 -33 79 -5 78 2 78 -367 0 -354 6 -401 60 -485 32 -50 110 -103 187 -126 65 -20 238 -20 306 0 62 18 145 69 179 111 69 84 78 136 78 478 0 272 6 347 29 370 6 6 32 14 59 17 43 4 47 8 50 33 6 54 -4 57 -193 57 -154 0 -174 -2 -188 -18 -35 -38 -14 -72 44 -72 21 0 47 -8 60 -19 l24 -19 0 -319 c0 -248 -3 -327 -14 -358 -38 -107 -102 -155 -207 -155 -78 0 -122 23 -151 80 -23 43 -23 51 -23 405 0 267 3 364 12 373 7 7 31 12 54 12 23 0 49 3 58 6 23 9 21 61 -3 74 -31 16 -512 13 -535 -3z"/>
<path d="M4308 2439 c-12 -6 -18 -22 -18 -44 0 -34 1 -35 41 -35 31 0 47 -6 70 -29 l29 -29 0 -384 c0 -211 -3 -393 -6 -404 -7 -27 -44 -44 -94 -44 -39 0 -40 -1 -40 -35 0 -24 6 -37 19 -45 26 -13 346 -13 372 0 12 7 19 21 19 39 0 30 -14 41 -55 41 -44 0 -75 21 -86 59 -6 22 -9 146 -7 325 l3 289 58 -74 c31 -41 85 -108 120 -150 102 -124 274 -337 361 -446 44 -56 89 -105 98 -108 10 -3 26 -1 38 5 20 11 20 19 20 438 1 235 5 447 9 470 11 55 28 72 80 79 39 5 41 7 41 39 0 23 -6 37 -19 44 -11 5 -86 10 -173 10 -123 0 -158 -3 -176 -16 -40 -28 -22 -74 30 -74 39 0 75 -19 83 -44 12 -34 18 -442 7 -431 -5 6 -28 35 -51 65 -23 30 -76 98 -119 151 -42 54 -114 144 -159 200 -130 166 -96 149 -301 149 -101 0 -184 -5 -194 -11z"/>
<path d="M9358 2433 c-37 -40 -15 -73 47 -73 78 0 75 17 75 -447 0 -462 3 -443 -76 -443 -61 0 -85 -38 -46 -73 16 -15 50 -17 269 -17 229 0 251 1 266 18 36 40 13 72 -49 72 -72 0 -74 7 -74 204 l0 173 103 5 c120 6 193 30 266 88 152 120 131 359 -40 446 -97 49 -145 55 -444 61 -269 5 -281 5 -297 -14z m512 -115 c47 -32 62 -83 58 -189 -3 -69 -8 -91 -27 -117 -26 -37 -42 -47 -93 -56 l-38 -7 0 196 0 195 34 0 c18 0 48 -10 66 -22z" fill="#ffffff"/>




</g>
</svg>